<svg xmlns="http://www.w3.org/2000/svg" width="78.671" height="78.671" viewBox="0 0 78.671 78.671">
  <path id="arrow-circle-left" d="M65.559,42.613V36.057a3.321,3.321,0,0,0-3.278-3.278H36.569L46.25,23.1a3.219,3.219,0,0,0,0-4.611l-4.661-4.661a3.343,3.343,0,0,0-4.611,0L18.44,32.371l-4.661,4.661a3.343,3.343,0,0,0,0,4.611L18.44,46.3l18.54,18.54a3.343,3.343,0,0,0,4.611,0l4.661-4.661a3.343,3.343,0,0,0,0-4.611l-9.683-9.681H62.281a3.321,3.321,0,0,0,3.278-3.278Zm13.112-3.278A38.481,38.481,0,0,1,73.4,59.08,39.154,39.154,0,0,1,59.08,73.4a38.481,38.481,0,0,1-19.744,5.275A38.481,38.481,0,0,1,19.591,73.4,39.154,39.154,0,0,1,5.275,59.08,38.481,38.481,0,0,1,0,39.335,38.481,38.481,0,0,1,5.275,19.591,39.154,39.154,0,0,1,19.591,5.275,38.481,38.481,0,0,1,39.335,0,38.482,38.482,0,0,1,59.08,5.275,39.153,39.153,0,0,1,73.4,19.591,38.481,38.481,0,0,1,78.671,39.335Z" fill="#f6f6f6"/>
</svg>
