<svg xmlns="http://www.w3.org/2000/svg" width="244.583" height="244.583" viewBox="0 0 244.583 244.583">
  <g id="Group_25" data-name="Group 25" transform="translate(-92.708 -1062.591)">
    <g id="Path_8" data-name="Path 8" transform="translate(212.421 1062.591) rotate(45)" fill="none">
      <path d="M0,0,174.51,2.175,176.593,169.3,2.083,167.125Z" stroke="none"/>
      <path d="M 11.13969421386719 11.13969421386719 L 12.94857788085938 156.2592926025391 L 165.4535064697266 158.1602325439453 L 163.6446533203125 13.04060363769531 L 11.13969421386719 11.13969421386719 M 0 0 L 174.5100708007812 2.175201416015625 L 176.5932006835938 169.2999267578125 L 2.083160400390625 167.1246948242188 L 0 0 Z" stroke="none" fill="#083358"/>
    </g>
    <g id="Path_9" data-name="Path 9" transform="translate(212.864 1097.54) rotate(45)" fill="#083358">
      <path d="M 4.804361820220947 115.7329406738281 L 5.467230796813965 5.467236042022705 L 121.7372207641602 4.7682785987854 L 121.0743713378906 115.0339660644531 L 4.804361820220947 115.7329406738281 Z" stroke="none"/>
      <path d="M 116.2038421630859 10.3016357421875 L 10.93445587158203 10.93445587158203 L 10.33773803710938 110.1995391845703 L 115.6071243286133 109.5667114257812 L 116.2038421630859 10.3016357421875 M 127.2705688476562 -0.7650985717773438 L 126.5415954589844 120.5011825561523 L -0.7289886474609375 121.2662658691406 L -1.52587890625e-05 -1.52587890625e-05 L 127.2705688476562 -0.7650985717773438 Z" stroke="none" fill="#083358"/>
    </g>
  </g>
</svg>
