<svg xmlns="http://www.w3.org/2000/svg" width="326" height="326" viewBox="0 0 326 326">
  <g id="Group_18" data-name="Group 18" transform="translate(-336.049 -4585.739)">
    <g id="Group_13" data-name="Group 13" transform="translate(336.049 4585.739)">
      <g id="Ellipse_4" data-name="Ellipse 4" fill="#0f4471" stroke="#083358" stroke-width="1">
        <circle cx="163" cy="163" r="163" stroke="none"/>
        <circle cx="163" cy="163" r="162.5" fill="none"/>
      </g>
    </g>
    <path id="phone" d="M215.328,170.062a50.478,50.478,0,0,1-1.531,10.784,60.693,60.693,0,0,1-3.212,10.473q-3.212,7.644-18.656,16.209-14.373,7.8-28.447,7.8a61.039,61.039,0,0,1-8.1-.532,62.005,62.005,0,0,1-8.793-1.914q-4.815-1.382-7.19-2.219t-8.488-3.134q-6.113-2.3-7.495-2.751a138.453,138.453,0,0,1-26.761-12.692Q77.231,180,56.279,159.05T23.244,118.676A138.677,138.677,0,0,1,10.551,91.915Q10.091,90.54,7.8,84.421T4.666,75.933q-.843-2.369-2.219-7.19A63.383,63.383,0,0,1,.532,59.951,59.636,59.636,0,0,1,0,51.846Q0,37.778,7.8,23.4,16.365,7.955,24.009,4.743A60.917,60.917,0,0,1,34.483,1.531,50.412,50.412,0,0,1,45.267,0a8.537,8.537,0,0,1,3.212.461q2.751.915,8.1,11.622,1.681,2.907,4.588,8.26t5.353,9.714q2.446,4.36,4.743,8.182.461.61,2.674,3.822a43.547,43.547,0,0,1,3.29,5.431,9.875,9.875,0,0,1,1.071,4.36q0,3.056-4.36,7.644a74.706,74.706,0,0,1-9.48,8.41,92.289,92.289,0,0,0-9.48,8.1q-4.36,4.283-4.36,7.034a10.313,10.313,0,0,0,.766,3.439q.766,2.064,1.3,3.134t2.141,3.673q1.609,2.6,1.759,2.907A160.5,160.5,0,0,0,83.195,132.14a160.5,160.5,0,0,0,35.942,26.611q.305.156,2.907,1.759t3.673,2.141a32.11,32.11,0,0,0,3.134,1.3,10.516,10.516,0,0,0,3.439.766q2.751,0,7.034-4.36a92.284,92.284,0,0,0,8.1-9.48,74.7,74.7,0,0,1,8.41-9.48q4.588-4.36,7.644-4.36a9.985,9.985,0,0,1,4.36,1.071,42.593,42.593,0,0,1,5.431,3.29q3.212,2.219,3.822,2.674,3.822,2.3,8.182,4.743t9.714,5.353q5.353,2.907,8.26,4.588,10.707,5.353,11.622,8.1a8.536,8.536,0,0,1,.461,3.212Z" transform="translate(391.382 4641.074)" fill="#fc3c3c"/>
  </g>
</svg>
